<mxfile host="65bd71144e">
    <diagram id="KNxTx2di6mZ6_DO-CkWX" name="Page-1">
        <mxGraphModel dx="681" dy="1089" grid="0" gridSize="10" guides="1" tooltips="1" connect="1" arrows="1" fold="1" page="0" pageScale="1" pageWidth="827" pageHeight="1169" math="0" shadow="0">
            <root>
                <mxCell id="0"/>
                <mxCell id="1" parent="0"/>
                <mxCell id="4" style="edgeStyle=none;html=1;entryX=1;entryY=0.5;entryDx=0;entryDy=0;" parent="1" source="2" target="3" edge="1">
                    <mxGeometry relative="1" as="geometry"/>
                </mxCell>
                <mxCell id="6" style="edgeStyle=none;html=1;" parent="1" source="2" target="5" edge="1">
                    <mxGeometry relative="1" as="geometry"/>
                </mxCell>
                <mxCell id="8" style="edgeStyle=none;html=1;entryX=0.5;entryY=0;entryDx=0;entryDy=0;" parent="1" source="2" target="7" edge="1">
                    <mxGeometry relative="1" as="geometry"/>
                </mxCell>
                <mxCell id="20" style="edgeStyle=none;html=1;entryX=0.5;entryY=1;entryDx=0;entryDy=0;" parent="1" source="2" target="19" edge="1">
                    <mxGeometry relative="1" as="geometry"/>
                </mxCell>
                <mxCell id="2" value="User" style="rounded=1;whiteSpace=wrap;html=1;" parent="1" vertex="1">
                    <mxGeometry x="200" y="140" width="120" height="60" as="geometry"/>
                </mxCell>
                <mxCell id="3" value="Auth info" style="rounded=1;whiteSpace=wrap;html=1;" parent="1" vertex="1">
                    <mxGeometry x="40" y="140" width="120" height="60" as="geometry"/>
                </mxCell>
                <mxCell id="5" value="Role" style="rounded=1;whiteSpace=wrap;html=1;" parent="1" vertex="1">
                    <mxGeometry x="360" y="140" width="120" height="60" as="geometry"/>
                </mxCell>
                <mxCell id="10" value="" style="edgeStyle=none;html=1;" parent="1" source="7" target="9" edge="1">
                    <mxGeometry relative="1" as="geometry"/>
                </mxCell>
                <mxCell id="13" style="edgeStyle=none;html=1;entryX=1;entryY=0.5;entryDx=0;entryDy=0;" parent="1" source="7" target="11" edge="1">
                    <mxGeometry relative="1" as="geometry"/>
                </mxCell>
                <mxCell id="14" style="edgeStyle=none;html=1;entryX=1;entryY=0.5;entryDx=0;entryDy=0;" parent="1" source="7" target="12" edge="1">
                    <mxGeometry relative="1" as="geometry"/>
                </mxCell>
                <mxCell id="17" style="edgeStyle=none;html=1;entryX=1;entryY=0.5;entryDx=0;entryDy=0;" parent="1" source="7" target="16" edge="1">
                    <mxGeometry relative="1" as="geometry"/>
                </mxCell>
                <mxCell id="7" value="Task" style="rounded=1;whiteSpace=wrap;html=1;" parent="1" vertex="1">
                    <mxGeometry x="200" y="250" width="120" height="60" as="geometry"/>
                </mxCell>
                <mxCell id="9" value="Status" style="rounded=1;whiteSpace=wrap;html=1;" parent="1" vertex="1">
                    <mxGeometry x="360" y="250" width="120" height="60" as="geometry"/>
                </mxCell>
                <mxCell id="11" value="Cost" style="rounded=1;whiteSpace=wrap;html=1;" parent="1" vertex="1">
                    <mxGeometry x="40" y="210" width="120" height="60" as="geometry"/>
                </mxCell>
                <mxCell id="12" value="Reward" style="rounded=1;whiteSpace=wrap;html=1;" parent="1" vertex="1">
                    <mxGeometry x="40" y="280" width="120" height="60" as="geometry"/>
                </mxCell>
                <mxCell id="16" value="Description" style="rounded=1;whiteSpace=wrap;html=1;" parent="1" vertex="1">
                    <mxGeometry x="40" y="350" width="120" height="60" as="geometry"/>
                </mxCell>
                <mxCell id="22" style="edgeStyle=none;html=1;entryX=0;entryY=0.5;entryDx=0;entryDy=0;" parent="1" source="19" target="21" edge="1">
                    <mxGeometry relative="1" as="geometry"/>
                </mxCell>
                <mxCell id="24" style="edgeStyle=none;html=1;" parent="1" source="19" target="23" edge="1">
                    <mxGeometry relative="1" as="geometry"/>
                </mxCell>
                <mxCell id="19" value="Account" style="rounded=1;whiteSpace=wrap;html=1;" parent="1" vertex="1">
                    <mxGeometry x="200" y="60" width="120" height="60" as="geometry"/>
                </mxCell>
                <mxCell id="21" value="Balance" style="rounded=1;whiteSpace=wrap;html=1;" parent="1" vertex="1">
                    <mxGeometry x="360" y="60" width="120" height="60" as="geometry"/>
                </mxCell>
                <mxCell id="23" value="AuditLog" style="rounded=1;whiteSpace=wrap;html=1;" parent="1" vertex="1">
                    <mxGeometry x="40" y="60" width="120" height="60" as="geometry"/>
                </mxCell>
                <mxCell id="39" value="Auth domain" style="swimlane;labelBackgroundColor=none;fillColor=none;" vertex="1" parent="1">
                    <mxGeometry x="520" y="500" width="490" height="130" as="geometry"/>
                </mxCell>
                <mxCell id="36" value="User" style="rounded=1;whiteSpace=wrap;html=1;" vertex="1" parent="39">
                    <mxGeometry x="185" y="40" width="120" height="60" as="geometry"/>
                </mxCell>
                <mxCell id="37" value="Auth info" style="rounded=1;whiteSpace=wrap;html=1;" vertex="1" parent="39">
                    <mxGeometry x="25" y="40" width="120" height="60" as="geometry"/>
                </mxCell>
                <mxCell id="34" style="edgeStyle=none;html=1;entryX=1;entryY=0.5;entryDx=0;entryDy=0;" edge="1" parent="39" source="36" target="37">
                    <mxGeometry relative="1" as="geometry"/>
                </mxCell>
                <mxCell id="38" value="Role" style="rounded=1;whiteSpace=wrap;html=1;" vertex="1" parent="39">
                    <mxGeometry x="345" y="40" width="120" height="60" as="geometry"/>
                </mxCell>
                <mxCell id="35" style="edgeStyle=none;html=1;" edge="1" parent="39" source="36" target="38">
                    <mxGeometry relative="1" as="geometry"/>
                </mxCell>
                <mxCell id="42" value="Task tracking domain" style="swimlane;labelBackgroundColor=none;fillColor=none;" vertex="1" parent="1">
                    <mxGeometry y="500" width="460" height="280" as="geometry"/>
                </mxCell>
                <mxCell id="50" value="Task" style="rounded=1;whiteSpace=wrap;html=1;" vertex="1" parent="42">
                    <mxGeometry x="170" y="185" width="120" height="60" as="geometry"/>
                </mxCell>
                <mxCell id="51" value="Status" style="rounded=1;whiteSpace=wrap;html=1;" vertex="1" parent="42">
                    <mxGeometry x="320" y="185" width="120" height="60" as="geometry"/>
                </mxCell>
                <mxCell id="46" value="" style="edgeStyle=none;html=1;" edge="1" parent="42" source="50" target="51">
                    <mxGeometry relative="1" as="geometry"/>
                </mxCell>
                <mxCell id="52" value="Cost" style="rounded=1;whiteSpace=wrap;html=1;" vertex="1" parent="42">
                    <mxGeometry x="20" y="45" width="120" height="60" as="geometry"/>
                </mxCell>
                <mxCell id="47" style="edgeStyle=none;html=1;entryX=1;entryY=0.5;entryDx=0;entryDy=0;" edge="1" parent="42" source="50" target="52">
                    <mxGeometry relative="1" as="geometry"/>
                </mxCell>
                <mxCell id="53" value="Reward" style="rounded=1;whiteSpace=wrap;html=1;" vertex="1" parent="42">
                    <mxGeometry x="20" y="115" width="120" height="60" as="geometry"/>
                </mxCell>
                <mxCell id="48" style="edgeStyle=none;html=1;entryX=1;entryY=0.5;entryDx=0;entryDy=0;" edge="1" parent="42" source="50" target="53">
                    <mxGeometry relative="1" as="geometry"/>
                </mxCell>
                <mxCell id="54" value="Description" style="rounded=1;whiteSpace=wrap;html=1;" vertex="1" parent="42">
                    <mxGeometry x="20" y="185" width="120" height="60" as="geometry"/>
                </mxCell>
                <mxCell id="49" style="edgeStyle=none;html=1;entryX=1;entryY=0.5;entryDx=0;entryDy=0;" edge="1" parent="42" source="50" target="54">
                    <mxGeometry relative="1" as="geometry"/>
                </mxCell>
                <mxCell id="56" style="edgeStyle=none;html=1;entryX=0.5;entryY=0;entryDx=0;entryDy=0;" edge="1" parent="42" source="55" target="50">
                    <mxGeometry relative="1" as="geometry"/>
                </mxCell>
                <mxCell id="55" value="User" style="rounded=1;whiteSpace=wrap;html=1;" vertex="1" parent="42">
                    <mxGeometry x="170" y="45" width="120" height="60" as="geometry"/>
                </mxCell>
                <mxCell id="44" value="Accounting domain" style="swimlane;labelBackgroundColor=none;fillColor=none;" vertex="1" parent="1">
                    <mxGeometry y="849" width="590" height="471" as="geometry"/>
                </mxCell>
                <mxCell id="80" style="edgeStyle=none;html=1;entryX=0.5;entryY=0;entryDx=0;entryDy=0;" edge="1" parent="44" source="77" target="69">
                    <mxGeometry relative="1" as="geometry"/>
                </mxCell>
                <mxCell id="77" value="Account" style="rounded=1;whiteSpace=wrap;html=1;" vertex="1" parent="44">
                    <mxGeometry x="230" y="41" width="120" height="60" as="geometry"/>
                </mxCell>
                <mxCell id="78" value="Balance" style="rounded=1;whiteSpace=wrap;html=1;" vertex="1" parent="44">
                    <mxGeometry x="390" y="41" width="120" height="60" as="geometry"/>
                </mxCell>
                <mxCell id="75" style="edgeStyle=none;html=1;entryX=0;entryY=0.5;entryDx=0;entryDy=0;" edge="1" parent="44" source="77" target="78">
                    <mxGeometry relative="1" as="geometry"/>
                </mxCell>
                <mxCell id="79" value="AuditLog" style="rounded=1;whiteSpace=wrap;html=1;" vertex="1" parent="44">
                    <mxGeometry x="70" y="41" width="120" height="60" as="geometry"/>
                </mxCell>
                <mxCell id="76" style="edgeStyle=none;html=1;" edge="1" parent="44" source="77" target="79">
                    <mxGeometry relative="1" as="geometry"/>
                </mxCell>
                <mxCell id="60" value="Status" style="rounded=1;whiteSpace=wrap;html=1;" vertex="1" parent="44">
                    <mxGeometry x="380" y="361" width="120" height="60" as="geometry"/>
                </mxCell>
                <mxCell id="59" value="Task" style="rounded=1;whiteSpace=wrap;html=1;" vertex="1" parent="44">
                    <mxGeometry x="230" y="361" width="120" height="60" as="geometry"/>
                </mxCell>
                <mxCell id="69" value="User" style="rounded=1;whiteSpace=wrap;html=1;" vertex="1" parent="44">
                    <mxGeometry x="230" y="221" width="120" height="60" as="geometry"/>
                </mxCell>
                <mxCell id="62" value="Cost" style="rounded=1;whiteSpace=wrap;html=1;" vertex="1" parent="44">
                    <mxGeometry x="80" y="221" width="120" height="60" as="geometry"/>
                </mxCell>
                <mxCell id="64" value="Reward" style="rounded=1;whiteSpace=wrap;html=1;" vertex="1" parent="44">
                    <mxGeometry x="80" y="291" width="120" height="60" as="geometry"/>
                </mxCell>
                <mxCell id="66" value="Description" style="rounded=1;whiteSpace=wrap;html=1;" vertex="1" parent="44">
                    <mxGeometry x="80" y="361" width="120" height="60" as="geometry"/>
                </mxCell>
                <mxCell id="61" value="" style="edgeStyle=none;html=1;" edge="1" parent="44" source="59" target="60">
                    <mxGeometry relative="1" as="geometry"/>
                </mxCell>
                <mxCell id="63" style="edgeStyle=none;html=1;entryX=1;entryY=0.5;entryDx=0;entryDy=0;" edge="1" parent="44" source="59" target="62">
                    <mxGeometry relative="1" as="geometry"/>
                </mxCell>
                <mxCell id="65" style="edgeStyle=none;html=1;entryX=1;entryY=0.5;entryDx=0;entryDy=0;" edge="1" parent="44" source="59" target="64">
                    <mxGeometry relative="1" as="geometry"/>
                </mxCell>
                <mxCell id="67" style="edgeStyle=none;html=1;entryX=1;entryY=0.5;entryDx=0;entryDy=0;" edge="1" parent="44" source="59" target="66">
                    <mxGeometry relative="1" as="geometry"/>
                </mxCell>
                <mxCell id="68" style="edgeStyle=none;html=1;entryX=0.5;entryY=0;entryDx=0;entryDy=0;" edge="1" parent="44" source="69" target="59">
                    <mxGeometry relative="1" as="geometry"/>
                </mxCell>
                <mxCell id="45" value="Analytics domain" style="swimlane;labelBackgroundColor=none;fillColor=none;" vertex="1" parent="1">
                    <mxGeometry x="670" y="849" width="465" height="306" as="geometry"/>
                </mxCell>
                <mxCell id="87" value="Status" style="rounded=1;whiteSpace=wrap;html=1;" vertex="1" parent="45">
                    <mxGeometry x="323" y="213" width="120" height="60" as="geometry"/>
                </mxCell>
                <mxCell id="88" value="Task" style="rounded=1;whiteSpace=wrap;html=1;" vertex="1" parent="45">
                    <mxGeometry x="173" y="213" width="120" height="60" as="geometry"/>
                </mxCell>
                <mxCell id="89" value="User" style="rounded=1;whiteSpace=wrap;html=1;" vertex="1" parent="45">
                    <mxGeometry x="173" y="73" width="120" height="60" as="geometry"/>
                </mxCell>
                <mxCell id="90" value="Cost" style="rounded=1;whiteSpace=wrap;html=1;" vertex="1" parent="45">
                    <mxGeometry x="23" y="73" width="120" height="60" as="geometry"/>
                </mxCell>
                <mxCell id="91" value="Reward" style="rounded=1;whiteSpace=wrap;html=1;" vertex="1" parent="45">
                    <mxGeometry x="23" y="143" width="120" height="60" as="geometry"/>
                </mxCell>
                <mxCell id="92" value="Description" style="rounded=1;whiteSpace=wrap;html=1;" vertex="1" parent="45">
                    <mxGeometry x="23" y="213" width="120" height="60" as="geometry"/>
                </mxCell>
                <mxCell id="93" value="" style="edgeStyle=none;html=1;" edge="1" parent="45" source="88">
                    <mxGeometry relative="1" as="geometry">
                        <mxPoint x="323" y="243" as="targetPoint"/>
                    </mxGeometry>
                </mxCell>
                <mxCell id="94" style="edgeStyle=none;html=1;entryX=1;entryY=0.5;entryDx=0;entryDy=0;" edge="1" parent="45" source="88" target="90">
                    <mxGeometry relative="1" as="geometry"/>
                </mxCell>
                <mxCell id="95" style="edgeStyle=none;html=1;entryX=1;entryY=0.5;entryDx=0;entryDy=0;" edge="1" parent="45" source="88" target="91">
                    <mxGeometry relative="1" as="geometry"/>
                </mxCell>
                <mxCell id="96" style="edgeStyle=none;html=1;entryX=1;entryY=0.5;entryDx=0;entryDy=0;" edge="1" parent="45" source="88" target="92">
                    <mxGeometry relative="1" as="geometry"/>
                </mxCell>
                <mxCell id="97" style="edgeStyle=none;html=1;entryX=0.5;entryY=0;entryDx=0;entryDy=0;" edge="1" parent="45" source="89" target="88">
                    <mxGeometry relative="1" as="geometry"/>
                </mxCell>
                <mxCell id="81" style="edgeStyle=none;html=1;entryX=0.5;entryY=1;entryDx=0;entryDy=0;dashed=1;endArrow=none;endFill=0;" edge="1" parent="1" source="55" target="36">
                    <mxGeometry relative="1" as="geometry">
                        <Array as="points">
                            <mxPoint x="650" y="660"/>
                        </Array>
                    </mxGeometry>
                </mxCell>
                <mxCell id="82" style="edgeStyle=none;html=1;entryX=0.5;entryY=1;entryDx=0;entryDy=0;dashed=1;endArrow=none;endFill=0;" edge="1" parent="1" source="69" target="36">
                    <mxGeometry relative="1" as="geometry">
                        <Array as="points">
                            <mxPoint x="640" y="900"/>
                        </Array>
                    </mxGeometry>
                </mxCell>
                <mxCell id="98" style="edgeStyle=none;html=1;entryX=0.5;entryY=0;entryDx=0;entryDy=0;dashed=1;endArrow=none;endFill=0;" edge="1" parent="1" source="36" target="89">
                    <mxGeometry relative="1" as="geometry">
                        <Array as="points">
                            <mxPoint x="808" y="825"/>
                        </Array>
                    </mxGeometry>
                </mxCell>
                <mxCell id="99" style="edgeStyle=none;html=1;entryX=0.5;entryY=1;entryDx=0;entryDy=0;dashed=1;endArrow=none;endFill=0;" edge="1" parent="1" source="88" target="59">
                    <mxGeometry relative="1" as="geometry">
                        <Array as="points">
                            <mxPoint x="730" y="1361"/>
                        </Array>
                    </mxGeometry>
                </mxCell>
                <mxCell id="100" style="edgeStyle=none;html=1;entryX=0.5;entryY=1;entryDx=0;entryDy=0;dashed=1;endArrow=none;endFill=0;" edge="1" parent="1" source="88" target="50">
                    <mxGeometry relative="1" as="geometry">
                        <Array as="points">
                            <mxPoint x="703" y="1241"/>
                            <mxPoint x="601" y="799"/>
                        </Array>
                    </mxGeometry>
                </mxCell>
            </root>
        </mxGraphModel>
    </diagram>
</mxfile>
